<mxfile host="app.diagrams.net" modified="2020-07-29T20:10:37.893Z" agent="5.0 (X11; Linux x86_64) AppleWebKit/537.36 (KHTML, like Gecko) Chrome/84.0.4147.89 Safari/537.36" etag="WZVn1teDul8mI00W4L-y" version="13.5.5" type="github">
  <diagram id="Zw6PxTqalaBefHckJNW4" name="Página-1">
    <mxGraphModel dx="703" dy="392" grid="1" gridSize="10" guides="1" tooltips="1" connect="1" arrows="1" fold="1" page="1" pageScale="1" pageWidth="827" pageHeight="1169" math="0" shadow="0">
      <root>
        <mxCell id="0" />
        <mxCell id="1" parent="0" />
        <mxCell id="CzjWUgL_UR7V8UyE61Ba-74" value="" style="rounded=0;whiteSpace=wrap;html=1;strokeColor=#000000;strokeWidth=4;fillColor=none;fontSize=17;align=center;" vertex="1" parent="1">
          <mxGeometry x="110" y="1740" width="480" height="510" as="geometry" />
        </mxCell>
        <mxCell id="CzjWUgL_UR7V8UyE61Ba-68" value="" style="rounded=0;whiteSpace=wrap;html=1;strokeColor=#000000;strokeWidth=4;fillColor=none;fontSize=17;align=center;" vertex="1" parent="1">
          <mxGeometry x="720" y="1510" width="480" height="510" as="geometry" />
        </mxCell>
        <mxCell id="IC2j4L_bSpXqsj63X4xG-14" value="" style="rounded=0;whiteSpace=wrap;html=1;fillColor=none;" parent="1" vertex="1">
          <mxGeometry x="409.5" y="550" width="342.5" height="300" as="geometry" />
        </mxCell>
        <mxCell id="IC2j4L_bSpXqsj63X4xG-1" value="" style="rounded=0;whiteSpace=wrap;html=1;fillColor=none;" parent="1" vertex="1">
          <mxGeometry x="409.5" y="860" width="342.5" height="300" as="geometry" />
        </mxCell>
        <mxCell id="IC2j4L_bSpXqsj63X4xG-2" value="Servidor de aplicação com perfil Web" style="rounded=0;whiteSpace=wrap;html=1;fillColor=none;" parent="1" vertex="1">
          <mxGeometry x="285" y="860" width="100" height="80" as="geometry" />
        </mxCell>
        <mxCell id="IC2j4L_bSpXqsj63X4xG-3" style="edgeStyle=orthogonalEdgeStyle;rounded=0;orthogonalLoop=1;jettySize=auto;html=1;entryX=0.5;entryY=1;entryDx=0;entryDy=0;strokeWidth=1;" parent="1" source="IC2j4L_bSpXqsj63X4xG-4" target="IC2j4L_bSpXqsj63X4xG-2" edge="1">
          <mxGeometry relative="1" as="geometry" />
        </mxCell>
        <mxCell id="IC2j4L_bSpXqsj63X4xG-4" value="Servlet&lt;br&gt;JSP&lt;br&gt;EL&lt;br&gt;JSTL&lt;br&gt;JSF&lt;br&gt;&lt;b&gt;Java&lt;/b&gt;" style="rounded=0;whiteSpace=wrap;html=1;fillColor=none;" parent="1" vertex="1">
          <mxGeometry x="230" y="1010" width="87" height="90" as="geometry" />
        </mxCell>
        <mxCell id="IC2j4L_bSpXqsj63X4xG-23" style="edgeStyle=orthogonalEdgeStyle;rounded=0;orthogonalLoop=1;jettySize=auto;html=1;" parent="1" source="IC2j4L_bSpXqsj63X4xG-5" target="IC2j4L_bSpXqsj63X4xG-20" edge="1">
          <mxGeometry relative="1" as="geometry" />
        </mxCell>
        <mxCell id="IC2j4L_bSpXqsj63X4xG-5" value="" style="shape=image;html=1;verticalAlign=top;verticalLabelPosition=bottom;labelBackgroundColor=#ffffff;imageAspect=0;aspect=fixed;image=https://cdn4.iconfinder.com/data/icons/free-retina-icon-set/60/Cat_head.png;fillColor=none;" parent="1" vertex="1">
          <mxGeometry x="420" y="750" width="60" height="60" as="geometry" />
        </mxCell>
        <mxCell id="IC2j4L_bSpXqsj63X4xG-7" style="edgeStyle=orthogonalEdgeStyle;rounded=0;orthogonalLoop=1;jettySize=auto;html=1;strokeWidth=1;entryX=0.5;entryY=1;entryDx=0;entryDy=0;" parent="1" source="IC2j4L_bSpXqsj63X4xG-8" target="IC2j4L_bSpXqsj63X4xG-5" edge="1">
          <mxGeometry relative="1" as="geometry">
            <mxPoint x="444.51724137931046" y="970" as="targetPoint" />
          </mxGeometry>
        </mxCell>
        <mxCell id="IC2j4L_bSpXqsj63X4xG-8" value="" style="shape=mxgraph.cisco.computers_and_peripherals.web_browser;html=1;dashed=0;fillColor=#036897;strokeColor=#ffffff;strokeWidth=2;verticalLabelPosition=bottom;verticalAlign=top" parent="1" vertex="1">
          <mxGeometry x="642" y="1050" width="62" height="64" as="geometry" />
        </mxCell>
        <mxCell id="IC2j4L_bSpXqsj63X4xG-9" value="HTTP" style="text;html=1;strokeColor=none;fillColor=none;align=center;verticalAlign=middle;whiteSpace=wrap;rounded=0;" parent="1" vertex="1">
          <mxGeometry x="496" y="1040" width="65" height="20" as="geometry" />
        </mxCell>
        <mxCell id="IC2j4L_bSpXqsj63X4xG-11" value="Meu Computador" style="text;html=1;strokeColor=none;fillColor=none;align=center;verticalAlign=middle;whiteSpace=wrap;rounded=0;" parent="1" vertex="1">
          <mxGeometry x="542" y="1180" width="65" height="20" as="geometry" />
        </mxCell>
        <mxCell id="IC2j4L_bSpXqsj63X4xG-13" value="ROOT" style="ellipse;whiteSpace=wrap;html=1;aspect=fixed;fillColor=#f8cecc;strokeColor=#b85450;" parent="1" vertex="1">
          <mxGeometry x="562" y="660" width="80" height="80" as="geometry" />
        </mxCell>
        <mxCell id="IC2j4L_bSpXqsj63X4xG-15" value="Tomcat" style="text;html=1;strokeColor=none;fillColor=none;align=center;verticalAlign=middle;whiteSpace=wrap;rounded=0;" parent="1" vertex="1">
          <mxGeometry x="330" y="770" width="65" height="20" as="geometry" />
        </mxCell>
        <mxCell id="IC2j4L_bSpXqsj63X4xG-16" value="docs" style="ellipse;whiteSpace=wrap;html=1;aspect=fixed;fillColor=#f8cecc;strokeColor=#b85450;" parent="1" vertex="1">
          <mxGeometry x="660" y="560" width="80" height="80" as="geometry" />
        </mxCell>
        <mxCell id="IC2j4L_bSpXqsj63X4xG-17" value="example" style="ellipse;whiteSpace=wrap;html=1;aspect=fixed;fillColor=#f8cecc;strokeColor=#b85450;" parent="1" vertex="1">
          <mxGeometry x="420" y="560" width="80" height="80" as="geometry" />
        </mxCell>
        <mxCell id="IC2j4L_bSpXqsj63X4xG-18" value="host-manager" style="ellipse;whiteSpace=wrap;html=1;aspect=fixed;fillColor=#f8cecc;strokeColor=#b85450;" parent="1" vertex="1">
          <mxGeometry x="510" y="560" width="80" height="80" as="geometry" />
        </mxCell>
        <mxCell id="IC2j4L_bSpXqsj63X4xG-19" value="manager" style="ellipse;whiteSpace=wrap;html=1;aspect=fixed;fillColor=#f8cecc;strokeColor=#b85450;" parent="1" vertex="1">
          <mxGeometry x="660" y="660" width="80" height="80" as="geometry" />
        </mxCell>
        <mxCell id="IC2j4L_bSpXqsj63X4xG-34" style="edgeStyle=orthogonalEdgeStyle;rounded=0;orthogonalLoop=1;jettySize=auto;html=1;entryX=-0.005;entryY=0.725;entryDx=0;entryDy=0;entryPerimeter=0;" parent="1" source="IC2j4L_bSpXqsj63X4xG-20" target="IC2j4L_bSpXqsj63X4xG-24" edge="1">
          <mxGeometry relative="1" as="geometry" />
        </mxCell>
        <mxCell id="IC2j4L_bSpXqsj63X4xG-20" value="fj21-agenda contatos" style="ellipse;whiteSpace=wrap;html=1;aspect=fixed;fillColor=#dae8fc;strokeColor=#6c8ebf;" parent="1" vertex="1">
          <mxGeometry x="580" y="750" width="80" height="80" as="geometry" />
        </mxCell>
        <mxCell id="IC2j4L_bSpXqsj63X4xG-21" value="localhost:8080/&amp;lt;nome-da-aplicação&amp;gt;" style="text;html=1;strokeColor=none;fillColor=none;align=center;verticalAlign=middle;whiteSpace=wrap;rounded=0;" parent="1" vertex="1">
          <mxGeometry x="510" y="990" width="230" height="30" as="geometry" />
        </mxCell>
        <mxCell id="IC2j4L_bSpXqsj63X4xG-24" value="" style="rounded=0;whiteSpace=wrap;html=1;fillColor=none;" parent="1" vertex="1">
          <mxGeometry x="810" y="550" width="342.5" height="300" as="geometry" />
        </mxCell>
        <mxCell id="IC2j4L_bSpXqsj63X4xG-25" value="WebContent (Raiz)" style="text;html=1;strokeColor=none;fillColor=none;align=center;verticalAlign=middle;whiteSpace=wrap;rounded=0;" parent="1" vertex="1">
          <mxGeometry x="840" y="620" width="140" height="20" as="geometry" />
        </mxCell>
        <mxCell id="IC2j4L_bSpXqsj63X4xG-27" value="META-INF" style="rounded=0;whiteSpace=wrap;html=1;" parent="1" vertex="1">
          <mxGeometry x="900" y="650" width="120" height="40" as="geometry" />
        </mxCell>
        <mxCell id="IC2j4L_bSpXqsj63X4xG-28" value="WEB-INF" style="rounded=0;whiteSpace=wrap;html=1;" parent="1" vertex="1">
          <mxGeometry x="900" y="700" width="120" height="40" as="geometry" />
        </mxCell>
        <mxCell id="IC2j4L_bSpXqsj63X4xG-29" value="olaMundo.html" style="shape=document;whiteSpace=wrap;html=1;boundedLbl=1;" parent="1" vertex="1">
          <mxGeometry x="900" y="750" width="100" height="50" as="geometry" />
        </mxCell>
        <mxCell id="IC2j4L_bSpXqsj63X4xG-30" value="/home/fsouto/opt/jee-2020-03/workspace/fj21-9381/fj21-agenda-contatos/WebContent/olaMundo.html" style="text;html=1;strokeColor=none;fillColor=none;align=center;verticalAlign=middle;whiteSpace=wrap;rounded=0;" parent="1" vertex="1">
          <mxGeometry x="780" y="880" width="590" height="20" as="geometry" />
        </mxCell>
        <mxCell id="IC2j4L_bSpXqsj63X4xG-33" style="edgeStyle=orthogonalEdgeStyle;rounded=0;orthogonalLoop=1;jettySize=auto;html=1;entryX=1;entryY=0.5;entryDx=0;entryDy=0;" parent="1" source="IC2j4L_bSpXqsj63X4xG-32" target="IC2j4L_bSpXqsj63X4xG-29" edge="1">
          <mxGeometry relative="1" as="geometry">
            <Array as="points">
              <mxPoint x="1065" y="775" />
            </Array>
          </mxGeometry>
        </mxCell>
        <mxCell id="IC2j4L_bSpXqsj63X4xG-32" value="/" style="ellipse;whiteSpace=wrap;html=1;" parent="1" vertex="1">
          <mxGeometry x="1020" y="610" width="90" height="40" as="geometry" />
        </mxCell>
        <mxCell id="IC2j4L_bSpXqsj63X4xG-35" value="novoArquivo.html" style="shape=document;whiteSpace=wrap;html=1;boundedLbl=1;" parent="1" vertex="1">
          <mxGeometry x="900" y="810" width="100" height="50" as="geometry" />
        </mxCell>
        <mxCell id="CzjWUgL_UR7V8UyE61Ba-4" style="edgeStyle=orthogonalEdgeStyle;rounded=0;orthogonalLoop=1;jettySize=auto;html=1;" edge="1" parent="1" source="CzjWUgL_UR7V8UyE61Ba-1" target="CzjWUgL_UR7V8UyE61Ba-3">
          <mxGeometry relative="1" as="geometry" />
        </mxCell>
        <mxCell id="CzjWUgL_UR7V8UyE61Ba-1" value="Input dos dados" style="rounded=0;whiteSpace=wrap;html=1;" vertex="1" parent="1">
          <mxGeometry x="850" y="940" width="160" height="190" as="geometry" />
        </mxCell>
        <mxCell id="CzjWUgL_UR7V8UyE61Ba-2" value="Página html&lt;br&gt;" style="text;html=1;strokeColor=none;fillColor=none;align=center;verticalAlign=middle;whiteSpace=wrap;rounded=0;" vertex="1" parent="1">
          <mxGeometry x="890" y="1140" width="90" height="20" as="geometry" />
        </mxCell>
        <mxCell id="CzjWUgL_UR7V8UyE61Ba-18" style="edgeStyle=orthogonalEdgeStyle;rounded=0;orthogonalLoop=1;jettySize=auto;html=1;entryX=1;entryY=0.3333333333333333;entryDx=0;entryDy=0;entryPerimeter=0;strokeWidth=3;fontSize=16;" edge="1" parent="1" source="CzjWUgL_UR7V8UyE61Ba-3" target="CzjWUgL_UR7V8UyE61Ba-16">
          <mxGeometry relative="1" as="geometry">
            <Array as="points">
              <mxPoint x="1300" y="1280" />
            </Array>
          </mxGeometry>
        </mxCell>
        <mxCell id="CzjWUgL_UR7V8UyE61Ba-3" value="fj21-agenda contatos" style="ellipse;whiteSpace=wrap;html=1;aspect=fixed;fillColor=#dae8fc;strokeColor=#6c8ebf;" vertex="1" parent="1">
          <mxGeometry x="1260" y="995" width="80" height="80" as="geometry" />
        </mxCell>
        <mxCell id="CzjWUgL_UR7V8UyE61Ba-5" value="Requisição&lt;br&gt;(dados que o usuário me forneceu)" style="text;html=1;strokeColor=#b85450;align=center;verticalAlign=middle;whiteSpace=wrap;rounded=0;fillColor=#f8cecc;" vertex="1" parent="1">
          <mxGeometry x="1030" y="970" width="200" height="50" as="geometry" />
        </mxCell>
        <mxCell id="CzjWUgL_UR7V8UyE61Ba-6" value="" style="rounded=1;whiteSpace=wrap;html=1;fillColor=none;strokeWidth=3;" vertex="1" parent="1">
          <mxGeometry x="1360" y="900" width="250" height="285" as="geometry" />
        </mxCell>
        <mxCell id="CzjWUgL_UR7V8UyE61Ba-12" style="edgeStyle=orthogonalEdgeStyle;rounded=0;orthogonalLoop=1;jettySize=auto;html=1;entryX=0.5;entryY=1;entryDx=0;entryDy=0;fillColor=#f8cecc;strokeColor=#b85450;strokeWidth=3;" edge="1" parent="1" source="CzjWUgL_UR7V8UyE61Ba-7" target="CzjWUgL_UR7V8UyE61Ba-11">
          <mxGeometry relative="1" as="geometry" />
        </mxCell>
        <mxCell id="CzjWUgL_UR7V8UyE61Ba-34" style="edgeStyle=orthogonalEdgeStyle;rounded=0;orthogonalLoop=1;jettySize=auto;html=1;entryX=0;entryY=0.5;entryDx=0;entryDy=0;strokeWidth=3;fontSize=14;" edge="1" parent="1" source="CzjWUgL_UR7V8UyE61Ba-7" target="CzjWUgL_UR7V8UyE61Ba-33">
          <mxGeometry relative="1" as="geometry">
            <Array as="points">
              <mxPoint x="1430" y="860" />
              <mxPoint x="1500" y="860" />
              <mxPoint x="1500" y="820" />
            </Array>
          </mxGeometry>
        </mxCell>
        <mxCell id="CzjWUgL_UR7V8UyE61Ba-7" value="Adiciona&lt;br&gt;Contato&lt;br&gt;Servlet" style="whiteSpace=wrap;html=1;aspect=fixed;strokeWidth=3;fillColor=none;" vertex="1" parent="1">
          <mxGeometry x="1390" y="915" width="80" height="80" as="geometry" />
        </mxCell>
        <mxCell id="CzjWUgL_UR7V8UyE61Ba-8" value="servlet2" style="whiteSpace=wrap;html=1;aspect=fixed;strokeWidth=3;fillColor=none;" vertex="1" parent="1">
          <mxGeometry x="1390" y="1015" width="80" height="80" as="geometry" />
        </mxCell>
        <mxCell id="CzjWUgL_UR7V8UyE61Ba-9" value="..." style="whiteSpace=wrap;html=1;aspect=fixed;strokeWidth=3;fillColor=none;" vertex="1" parent="1">
          <mxGeometry x="1500" y="915" width="80" height="80" as="geometry" />
        </mxCell>
        <mxCell id="CzjWUgL_UR7V8UyE61Ba-10" value="servletN" style="whiteSpace=wrap;html=1;aspect=fixed;strokeWidth=3;fillColor=none;" vertex="1" parent="1">
          <mxGeometry x="1500" y="1015" width="80" height="80" as="geometry" />
        </mxCell>
        <mxCell id="CzjWUgL_UR7V8UyE61Ba-39" style="edgeStyle=orthogonalEdgeStyle;rounded=0;orthogonalLoop=1;jettySize=auto;html=1;entryX=0;entryY=0.5;entryDx=0;entryDy=0;strokeWidth=3;fontSize=14;" edge="1" parent="1" source="CzjWUgL_UR7V8UyE61Ba-11" target="CzjWUgL_UR7V8UyE61Ba-38">
          <mxGeometry relative="1" as="geometry" />
        </mxCell>
        <mxCell id="CzjWUgL_UR7V8UyE61Ba-11" value="Lógica de negócio" style="shape=hexagon;perimeter=hexagonPerimeter2;whiteSpace=wrap;html=1;fixedSize=1;strokeWidth=1;fillColor=none;" vertex="1" parent="1">
          <mxGeometry x="1370" y="720" width="120" height="80" as="geometry" />
        </mxCell>
        <mxCell id="CzjWUgL_UR7V8UyE61Ba-13" value="Servlet&lt;br&gt;&lt;br&gt;- Classe Java que extende a classe HttpServlet&lt;br&gt;- Tem um método chamado service&lt;br&gt;- Esse método recebe dois parâmetros&lt;br&gt;- HttpServletRequest&lt;br&gt;- HttpServletResponse" style="whiteSpace=wrap;html=1;aspect=fixed;strokeWidth=3;fillColor=none;verticalAlign=top;align=left;" vertex="1" parent="1">
          <mxGeometry x="1654" y="910" width="240" height="240" as="geometry" />
        </mxCell>
        <mxCell id="CzjWUgL_UR7V8UyE61Ba-14" value="request" style="rounded=0;whiteSpace=wrap;html=1;strokeWidth=1;fillColor=#f8cecc;align=center;fontSize=16;strokeColor=#b85450;" vertex="1" parent="1">
          <mxGeometry x="1663" y="1060" width="90" height="60" as="geometry" />
        </mxCell>
        <mxCell id="CzjWUgL_UR7V8UyE61Ba-15" value="response" style="rounded=0;whiteSpace=wrap;html=1;strokeWidth=1;fillColor=#dae8fc;align=center;fontSize=16;strokeColor=#6c8ebf;" vertex="1" parent="1">
          <mxGeometry x="1783" y="1060" width="90" height="60" as="geometry" />
        </mxCell>
        <mxCell id="CzjWUgL_UR7V8UyE61Ba-54" style="edgeStyle=orthogonalEdgeStyle;rounded=0;orthogonalLoop=1;jettySize=auto;html=1;entryX=1.012;entryY=0.421;entryDx=0;entryDy=0;entryPerimeter=0;strokeWidth=3;fontSize=20;exitX=0;exitY=0.3333333333333333;exitDx=0;exitDy=0;exitPerimeter=0;" edge="1" parent="1" source="CzjWUgL_UR7V8UyE61Ba-16" target="CzjWUgL_UR7V8UyE61Ba-53">
          <mxGeometry relative="1" as="geometry" />
        </mxCell>
        <mxCell id="CzjWUgL_UR7V8UyE61Ba-16" value="Usuario" style="shape=umlActor;verticalLabelPosition=bottom;verticalAlign=top;html=1;outlineConnect=0;strokeWidth=1;fillColor=#ffffff;fontSize=16;align=center;" vertex="1" parent="1">
          <mxGeometry x="870" y="1220" width="90" height="180" as="geometry" />
        </mxCell>
        <mxCell id="CzjWUgL_UR7V8UyE61Ba-19" value="Resposta&lt;br&gt;(solicitação que ele fez)" style="text;html=1;strokeColor=#82b366;align=center;verticalAlign=middle;whiteSpace=wrap;rounded=0;fillColor=#d5e8d4;" vertex="1" parent="1">
          <mxGeometry x="1100" y="1300" width="200" height="50" as="geometry" />
        </mxCell>
        <mxCell id="CzjWUgL_UR7V8UyE61Ba-20" value="Página de sucesso.html" style="rounded=0;whiteSpace=wrap;html=1;" vertex="1" parent="1">
          <mxGeometry x="1120" y="1365" width="160" height="80" as="geometry" />
        </mxCell>
        <mxCell id="CzjWUgL_UR7V8UyE61Ba-23" value="" style="rounded=0;whiteSpace=wrap;html=1;strokeWidth=1;fontSize=16;align=left;fillColor=none;" vertex="1" parent="1">
          <mxGeometry x="1400" y="1340" width="200" height="210" as="geometry" />
        </mxCell>
        <mxCell id="CzjWUgL_UR7V8UyE61Ba-27" style="edgeStyle=orthogonalEdgeStyle;rounded=0;orthogonalLoop=1;jettySize=auto;html=1;strokeWidth=3;fontSize=16;" edge="1" parent="1" source="CzjWUgL_UR7V8UyE61Ba-24" target="CzjWUgL_UR7V8UyE61Ba-20">
          <mxGeometry relative="1" as="geometry" />
        </mxCell>
        <mxCell id="CzjWUgL_UR7V8UyE61Ba-31" style="edgeStyle=orthogonalEdgeStyle;rounded=0;orthogonalLoop=1;jettySize=auto;html=1;entryX=0.5;entryY=0;entryDx=0;entryDy=0;strokeWidth=3;fontSize=14;" edge="1" parent="1" source="CzjWUgL_UR7V8UyE61Ba-24" target="CzjWUgL_UR7V8UyE61Ba-30">
          <mxGeometry relative="1" as="geometry" />
        </mxCell>
        <mxCell id="CzjWUgL_UR7V8UyE61Ba-24" value="Corpo (Body)" style="rounded=0;whiteSpace=wrap;html=1;" vertex="1" parent="1">
          <mxGeometry x="1420" y="1450" width="160" height="70" as="geometry" />
        </mxCell>
        <mxCell id="CzjWUgL_UR7V8UyE61Ba-29" style="edgeStyle=orthogonalEdgeStyle;rounded=0;orthogonalLoop=1;jettySize=auto;html=1;strokeWidth=3;fontSize=16;" edge="1" parent="1" source="CzjWUgL_UR7V8UyE61Ba-25" target="CzjWUgL_UR7V8UyE61Ba-28">
          <mxGeometry relative="1" as="geometry" />
        </mxCell>
        <mxCell id="CzjWUgL_UR7V8UyE61Ba-25" value="Cabeçalho (header)" style="rounded=0;whiteSpace=wrap;html=1;" vertex="1" parent="1">
          <mxGeometry x="1420" y="1360" width="160" height="70" as="geometry" />
        </mxCell>
        <mxCell id="CzjWUgL_UR7V8UyE61Ba-28" value="Meta informações sobre a requisição/respota" style="text;html=1;fillColor=none;align=center;verticalAlign=middle;whiteSpace=wrap;rounded=0;fontSize=14;strokeColor=#000000;" vertex="1" parent="1">
          <mxGeometry x="1375" y="1230" width="250" height="50" as="geometry" />
        </mxCell>
        <mxCell id="CzjWUgL_UR7V8UyE61Ba-30" value="Conteúdo da requisição/resposta" style="text;html=1;fillColor=none;align=center;verticalAlign=middle;whiteSpace=wrap;rounded=0;fontSize=14;strokeColor=#000000;" vertex="1" parent="1">
          <mxGeometry x="1375" y="1590" width="250" height="50" as="geometry" />
        </mxCell>
        <mxCell id="CzjWUgL_UR7V8UyE61Ba-32" value="/adicionaContato" style="text;html=1;strokeColor=#d79b00;fillColor=#ffe6cc;align=center;verticalAlign=middle;whiteSpace=wrap;rounded=0;fontSize=14;" vertex="1" parent="1">
          <mxGeometry x="1065" y="1050" width="130" height="20" as="geometry" />
        </mxCell>
        <mxCell id="CzjWUgL_UR7V8UyE61Ba-33" value="Mapeamento" style="rhombus;whiteSpace=wrap;html=1;strokeColor=#000000;strokeWidth=1;fillColor=none;fontSize=14;align=center;" vertex="1" parent="1">
          <mxGeometry x="1530" y="780" width="140" height="80" as="geometry" />
        </mxCell>
        <mxCell id="CzjWUgL_UR7V8UyE61Ba-36" style="edgeStyle=orthogonalEdgeStyle;rounded=0;orthogonalLoop=1;jettySize=auto;html=1;entryX=1;entryY=0.5;entryDx=0;entryDy=0;strokeWidth=3;fontSize=14;" edge="1" parent="1" source="CzjWUgL_UR7V8UyE61Ba-35" target="CzjWUgL_UR7V8UyE61Ba-15">
          <mxGeometry relative="1" as="geometry" />
        </mxCell>
        <mxCell id="CzjWUgL_UR7V8UyE61Ba-35" value="writer&lt;br&gt;escritor" style="rounded=0;whiteSpace=wrap;html=1;strokeWidth=1;fillColor=#dae8fc;align=center;fontSize=16;strokeColor=#6c8ebf;" vertex="1" parent="1">
          <mxGeometry x="1930" y="1060" width="90" height="60" as="geometry" />
        </mxCell>
        <mxCell id="CzjWUgL_UR7V8UyE61Ba-37" value="&amp;lt;nomeContato&amp;gt; Fellipe,&lt;br&gt;&amp;lt;chave&amp;gt; : &amp;lt;valor&amp;gt;,&lt;br&gt;...." style="shape=document;whiteSpace=wrap;html=1;boundedLbl=1;strokeColor=#9673a6;strokeWidth=1;fillColor=#e1d5e7;fontSize=14;align=center;" vertex="1" parent="1">
          <mxGeometry x="1040" y="1087.5" width="180" height="125" as="geometry" />
        </mxCell>
        <mxCell id="CzjWUgL_UR7V8UyE61Ba-38" value="request" style="rounded=0;whiteSpace=wrap;html=1;strokeWidth=1;fillColor=#f8cecc;align=center;fontSize=16;strokeColor=#b85450;" vertex="1" parent="1">
          <mxGeometry x="1535" y="650" width="90" height="60" as="geometry" />
        </mxCell>
        <mxCell id="CzjWUgL_UR7V8UyE61Ba-40" value="System.out.println" style="rounded=0;whiteSpace=wrap;html=1;strokeWidth=1;fillColor=#a20025;align=center;fontSize=16;strokeColor=#6F0000;fontColor=#ffffff;" vertex="1" parent="1">
          <mxGeometry x="1930" y="950" width="170" height="60" as="geometry" />
        </mxCell>
        <mxCell id="CzjWUgL_UR7V8UyE61Ba-43" style="edgeStyle=orthogonalEdgeStyle;rounded=0;orthogonalLoop=1;jettySize=auto;html=1;entryX=0;entryY=0.5;entryDx=0;entryDy=0;strokeWidth=3;fontSize=14;" edge="1" parent="1" source="CzjWUgL_UR7V8UyE61Ba-41" target="CzjWUgL_UR7V8UyE61Ba-42">
          <mxGeometry relative="1" as="geometry" />
        </mxCell>
        <mxCell id="CzjWUgL_UR7V8UyE61Ba-41" value="Formulário" style="rounded=0;whiteSpace=wrap;html=1;strokeColor=#000000;strokeWidth=1;fillColor=none;fontSize=14;align=center;" vertex="1" parent="1">
          <mxGeometry x="1740" y="1260" width="150" height="190" as="geometry" />
        </mxCell>
        <mxCell id="CzjWUgL_UR7V8UyE61Ba-46" style="edgeStyle=orthogonalEdgeStyle;rounded=0;orthogonalLoop=1;jettySize=auto;html=1;strokeWidth=3;fontSize=14;" edge="1" parent="1" target="CzjWUgL_UR7V8UyE61Ba-44">
          <mxGeometry relative="1" as="geometry">
            <mxPoint x="2030" y="1310" as="sourcePoint" />
            <Array as="points">
              <mxPoint x="2030" y="1275" />
            </Array>
          </mxGeometry>
        </mxCell>
        <mxCell id="CzjWUgL_UR7V8UyE61Ba-47" style="edgeStyle=orthogonalEdgeStyle;rounded=0;orthogonalLoop=1;jettySize=auto;html=1;strokeWidth=3;fontSize=14;exitX=0.5;exitY=1;exitDx=0;exitDy=0;" edge="1" parent="1" source="CzjWUgL_UR7V8UyE61Ba-42" target="CzjWUgL_UR7V8UyE61Ba-45">
          <mxGeometry relative="1" as="geometry">
            <Array as="points">
              <mxPoint x="2024" y="1440" />
            </Array>
          </mxGeometry>
        </mxCell>
        <mxCell id="CzjWUgL_UR7V8UyE61Ba-42" value="Submissão" style="rounded=0;whiteSpace=wrap;html=1;strokeColor=#000000;strokeWidth=1;fillColor=none;fontSize=14;align=center;" vertex="1" parent="1">
          <mxGeometry x="1940" y="1315" width="167" height="80" as="geometry" />
        </mxCell>
        <mxCell id="CzjWUgL_UR7V8UyE61Ba-49" style="edgeStyle=orthogonalEdgeStyle;rounded=0;orthogonalLoop=1;jettySize=auto;html=1;entryX=0;entryY=0.5;entryDx=0;entryDy=0;strokeWidth=3;fontSize=14;" edge="1" parent="1" source="CzjWUgL_UR7V8UyE61Ba-44" target="CzjWUgL_UR7V8UyE61Ba-48">
          <mxGeometry relative="1" as="geometry" />
        </mxCell>
        <mxCell id="CzjWUgL_UR7V8UyE61Ba-44" value="Query-string&lt;br&gt;(Url que está sendo chamada)" style="rounded=0;whiteSpace=wrap;html=1;strokeColor=#000000;strokeWidth=1;fillColor=none;fontSize=14;align=center;" vertex="1" parent="1">
          <mxGeometry x="2140" y="1235" width="167" height="80" as="geometry" />
        </mxCell>
        <mxCell id="CzjWUgL_UR7V8UyE61Ba-51" style="edgeStyle=orthogonalEdgeStyle;rounded=0;orthogonalLoop=1;jettySize=auto;html=1;entryX=0;entryY=0.5;entryDx=0;entryDy=0;strokeWidth=3;fontSize=14;" edge="1" parent="1" source="CzjWUgL_UR7V8UyE61Ba-45" target="CzjWUgL_UR7V8UyE61Ba-50">
          <mxGeometry relative="1" as="geometry" />
        </mxCell>
        <mxCell id="CzjWUgL_UR7V8UyE61Ba-45" value="form data" style="rounded=0;whiteSpace=wrap;html=1;strokeColor=#000000;strokeWidth=1;fillColor=none;fontSize=14;align=center;" vertex="1" parent="1">
          <mxGeometry x="2140" y="1380" width="167" height="80" as="geometry" />
        </mxCell>
        <mxCell id="CzjWUgL_UR7V8UyE61Ba-48" value="&lt;div&gt;Request Method: GET&lt;/div&gt;&lt;div&gt;Obtenção de dados&lt;/div&gt;" style="rounded=0;whiteSpace=wrap;html=1;strokeColor=#000000;strokeWidth=1;fillColor=none;fontSize=14;align=center;" vertex="1" parent="1">
          <mxGeometry x="2350" y="1210" width="120" height="95" as="geometry" />
        </mxCell>
        <mxCell id="CzjWUgL_UR7V8UyE61Ba-50" value="&lt;div&gt;Request Method: POST&lt;/div&gt;&lt;div&gt;O envio de dados que provocará uma mudança&lt;/div&gt;" style="rounded=0;whiteSpace=wrap;html=1;strokeColor=#000000;strokeWidth=1;fillColor=none;fontSize=14;align=center;" vertex="1" parent="1">
          <mxGeometry x="2350" y="1390" width="120" height="120" as="geometry" />
        </mxCell>
        <mxCell id="CzjWUgL_UR7V8UyE61Ba-52" value="Verbos do HTTP" style="text;html=1;strokeColor=none;fillColor=none;align=center;verticalAlign=middle;whiteSpace=wrap;rounded=0;fontSize=20;" vertex="1" parent="1">
          <mxGeometry x="2365" y="1310" width="90" height="70" as="geometry" />
        </mxCell>
        <mxCell id="CzjWUgL_UR7V8UyE61Ba-53" value="Listagem dos contatos" style="rounded=0;whiteSpace=wrap;html=1;" vertex="1" parent="1">
          <mxGeometry x="522" y="1340" width="160" height="190" as="geometry" />
        </mxCell>
        <mxCell id="CzjWUgL_UR7V8UyE61Ba-55" value="Estática" style="text;html=1;strokeColor=#b85450;fillColor=#f8cecc;align=center;verticalAlign=middle;whiteSpace=wrap;rounded=0;fontSize=17;" vertex="1" parent="1">
          <mxGeometry x="480" y="1280" width="70" height="25" as="geometry" />
        </mxCell>
        <mxCell id="CzjWUgL_UR7V8UyE61Ba-56" value="Dinâmica" style="text;html=1;strokeColor=#6c8ebf;fillColor=#dae8fc;align=center;verticalAlign=middle;whiteSpace=wrap;rounded=0;fontSize=17;" vertex="1" parent="1">
          <mxGeometry x="630" y="1280" width="80" height="25" as="geometry" />
        </mxCell>
        <mxCell id="CzjWUgL_UR7V8UyE61Ba-60" style="edgeStyle=orthogonalEdgeStyle;rounded=0;orthogonalLoop=1;jettySize=auto;html=1;strokeWidth=3;fontSize=17;" edge="1" parent="1" source="CzjWUgL_UR7V8UyE61Ba-58" target="CzjWUgL_UR7V8UyE61Ba-59">
          <mxGeometry relative="1" as="geometry" />
        </mxCell>
        <mxCell id="CzjWUgL_UR7V8UyE61Ba-58" value="HTML" style="ellipse;whiteSpace=wrap;html=1;strokeColor=#000000;strokeWidth=4;fillColor=none;fontSize=17;align=center;" vertex="1" parent="1">
          <mxGeometry x="317" y="1600" width="120" height="80" as="geometry" />
        </mxCell>
        <mxCell id="CzjWUgL_UR7V8UyE61Ba-59" value="Java" style="ellipse;whiteSpace=wrap;html=1;strokeColor=#000000;strokeWidth=4;fillColor=none;fontSize=17;align=center;" vertex="1" parent="1">
          <mxGeometry x="580" y="1590" width="120" height="80" as="geometry" />
        </mxCell>
        <mxCell id="CzjWUgL_UR7V8UyE61Ba-61" value="HTML&lt;br&gt;CSS&lt;br&gt;JS" style="ellipse;whiteSpace=wrap;html=1;strokeColor=#b85450;strokeWidth=4;fillColor=#f8cecc;fontSize=17;align=center;" vertex="1" parent="1">
          <mxGeometry x="735" y="1537" width="250" height="206" as="geometry" />
        </mxCell>
        <mxCell id="CzjWUgL_UR7V8UyE61Ba-62" value="Java" style="ellipse;whiteSpace=wrap;html=1;strokeColor=#9673a6;strokeWidth=4;fillColor=#e1d5e7;fontSize=17;align=center;" vertex="1" parent="1">
          <mxGeometry x="895" y="1623" width="70" height="50" as="geometry" />
        </mxCell>
        <mxCell id="CzjWUgL_UR7V8UyE61Ba-65" style="edgeStyle=orthogonalEdgeStyle;rounded=0;orthogonalLoop=1;jettySize=auto;html=1;strokeWidth=3;fontSize=17;" edge="1" parent="1" source="CzjWUgL_UR7V8UyE61Ba-63" target="CzjWUgL_UR7V8UyE61Ba-64">
          <mxGeometry relative="1" as="geometry" />
        </mxCell>
        <mxCell id="CzjWUgL_UR7V8UyE61Ba-63" value="JSP - Java Server&lt;br&gt;Page" style="text;html=1;strokeColor=#666666;fillColor=#f5f5f5;align=center;verticalAlign=middle;whiteSpace=wrap;rounded=0;fontSize=17;fontColor=#333333;" vertex="1" parent="1">
          <mxGeometry x="995" y="1600" width="90" height="80" as="geometry" />
        </mxCell>
        <mxCell id="CzjWUgL_UR7V8UyE61Ba-67" style="edgeStyle=orthogonalEdgeStyle;rounded=0;orthogonalLoop=1;jettySize=auto;html=1;strokeWidth=3;fontSize=17;exitX=0.5;exitY=1;exitDx=0;exitDy=0;" edge="1" parent="1" source="CzjWUgL_UR7V8UyE61Ba-64" target="CzjWUgL_UR7V8UyE61Ba-66">
          <mxGeometry relative="1" as="geometry" />
        </mxCell>
        <mxCell id="CzjWUgL_UR7V8UyE61Ba-64" value="Jasper" style="rounded=1;whiteSpace=wrap;html=1;strokeColor=#000000;strokeWidth=4;fillColor=none;fontSize=17;align=center;" vertex="1" parent="1">
          <mxGeometry x="945" y="1810" width="190" height="110" as="geometry" />
        </mxCell>
        <mxCell id="CzjWUgL_UR7V8UyE61Ba-66" value="HTML&lt;br&gt;CSS&lt;br&gt;JS" style="ellipse;whiteSpace=wrap;html=1;strokeColor=#82b366;strokeWidth=4;fillColor=#d5e8d4;fontSize=17;align=center;" vertex="1" parent="1">
          <mxGeometry x="344" y="1900" width="140" height="140" as="geometry" />
        </mxCell>
        <mxCell id="CzjWUgL_UR7V8UyE61Ba-69" value="Servidor" style="text;html=1;strokeColor=none;fillColor=none;align=center;verticalAlign=middle;whiteSpace=wrap;rounded=0;fontSize=25;" vertex="1" parent="1">
          <mxGeometry x="1280" y="1970" width="40" height="20" as="geometry" />
        </mxCell>
        <mxCell id="CzjWUgL_UR7V8UyE61Ba-75" value="Browser" style="text;html=1;strokeColor=none;fillColor=none;align=center;verticalAlign=middle;whiteSpace=wrap;rounded=0;fontSize=25;" vertex="1" parent="1">
          <mxGeometry x="630" y="2120" width="40" height="20" as="geometry" />
        </mxCell>
      </root>
    </mxGraphModel>
  </diagram>
</mxfile>
